<?xml version="1.0" encoding="utf-8"?>
<!-- Svg Vector Icons : http://www.onlinewebfonts.com/icon -->
<!DOCTYPE svg PUBLIC "-//W3C//DTD SVG 1.1//EN" "http://www.w3.org/Graphics/SVG/1.1/DTD/svg11.dtd">
<svg version="1.1" xmlns="http://www.w3.org/2000/svg" xmlns:xlink="http://www.w3.org/1999/xlink" x="0px" y="0px" viewBox="0 0 1000 1000" enable-background="new 0 0 1000 1000" xml:space="preserve">
<metadata> Svg Vector Icons : http://www.onlinewebfonts.com/icon </metadata>
<g><path d="M978.5,115.6l-94.1-94.1c-15.7-15.7-41.2-15.7-58.8,2l-45.1,45.1l151,151l45.1-45.1C994.2,156.8,994.2,131.3,978.5,115.6z M864.8,799.8c0,52.9-43.1,94.1-94.1,94.1H202.1c-52.9,0-94.1-43.1-94.1-94.1V231.3c0-52.9,43.1-94.1,94.1-94.1h376.4l94.1-94.1H168.8C80.6,41.1,10,111.7,10,199.9v633.2C10,919.4,80.6,990,168.8,990H802c88.2,0,158.8-70.6,158.8-158.8V325.4l-96.1,96.1V799.8L864.8,799.8z M907.9,241.1l-151-151L423.7,421.5l151,151L907.9,241.1z M341.3,654.8L553.1,594l-151-151L341.3,654.8L341.3,654.8z"/></g>
</svg> 